<svg width="26" height="40" viewBox="0 0 26 40" fill="none" xmlns="http://www.w3.org/2000/svg">
<path d="M13 6.07027e-07C11.2927 -0.000522247 9.60197 0.336724 8.0245 0.99247C6.44703 1.64822 5.01372 2.60961 3.80645 3.82171C2.59919 5.03382 1.64163 6.47288 0.988508 8.05668C0.335381 9.64047 -0.000520161 11.338 6.046e-07 13.0521C6.046e-07 20.2587 13 40 13 40C13 40 26 20.2587 26 13.0521C26.0005 11.338 25.6646 9.64047 25.0115 8.05668C24.3584 6.47288 23.4008 5.03382 22.1935 3.82171C20.9863 2.60961 19.553 1.64822 17.9755 0.99247C16.398 0.336724 14.7073 -0.000522247 13 6.07027e-07ZM13.0832 22.495C11.4417 22.4958 9.83685 22.0076 8.47182 21.0922C7.10678 20.1768 6.04293 18.8754 5.41493 17.3527C4.78693 15.8299 4.62301 14.1544 4.94393 12.5381C5.26485 10.9218 6.05618 9.43739 7.21774 8.27284C8.37931 7.10829 9.85889 6.31592 11.4692 5.99603C13.0795 5.67615 14.7481 5.84312 16.2639 6.47583C17.7796 7.10853 19.0743 8.17851 19.9841 9.55034C20.8939 10.9222 21.3778 12.5341 21.3747 14.1823C21.3705 16.3877 20.4952 18.5015 18.9408 20.0598C17.3864 21.6182 15.2799 22.494 13.0832 22.495Z" fill="#0081CC"/>
</svg>
